
<!-- Uploaded to: SVG Repo, www.svgrepo.com, Transformed by: SVG Repo Mixer Tools -->
<svg fill="#ffffff" height="150px" width="150px" version="1.1" id="Layer_1" xmlns="http://www.w3.org/2000/svg" xmlns:xlink="http://www.w3.org/1999/xlink" viewBox="-150 -150 800 800" xml:space="preserve" stroke="#ffffff">

<g id="SVGRepo_bgCarrier" stroke-width="0"/>

    <g id="SVGRepo_tracerCarrier" stroke-linecap="round" stroke-linejoin="round" stroke="#d80e0e" stroke-width="15.36"> <g> <g> <path d="M475.582,347.582l-16.89,16.89L347.368,251.907l106.066-109.636l22.147,22.147c8.331,8.331,21.839,8.331,30.17,0 c8.331-8.331,8.331-21.839,0-30.17l-37.462-37.462c-0.007-0.007-0.013-0.015-0.02-0.022l-60.352-60.352 c-0.007-0.007-0.015-0.013-0.023-0.021L377.752,6.248c-8.331-8.331-21.839-8.331-30.17,0c-8.331,8.331-8.331,21.839,0,30.17 l15.163,15.163l-106.742,107.94L149.254,51.582l15.164-15.164c8.331-8.331,8.331-21.839,0-30.17 c-8.331-8.331-21.839-8.331-30.17,0l-30.165,30.165c0,0,0,0-0.001,0.001L43.731,96.766L6.248,134.248 c-8.331,8.331-8.331,21.839,0,30.17c8.331,8.331,21.839,8.331,30.17,0l22.146-22.146l106.064,109.641L53.308,364.471 l-16.889-16.889c-8.331-8.331-21.839-8.331-30.17,0c-8.331,8.331-8.331,21.839,0,30.17l128,128c8.331,8.331,21.839,8.331,30.17,0 c8.331-8.331,8.331-21.839,0-30.17l-16.988-16.988l108.562-112.235l108.575,112.236l-16.986,16.986 c-8.331,8.331-8.331,21.839,0,30.17c8.331,8.331,21.839,8.331,30.17,0l128-128c8.331-8.331,8.331-21.839,0-30.17 C497.42,339.251,483.913,339.251,475.582,347.582z M392.915,81.752l30.345,30.345L317.359,221.563l-31.352-31.702L392.915,81.752z M119.084,81.753l121.682,123.04c0.023,0.024,0.042,0.05,0.066,0.073l61.525,62.208c0.01,0.01,0.021,0.018,0.031,0.028 l115.525,116.814l-33.661,33.661L271.487,301.01c-0.054-0.057-0.1-0.12-0.154-0.176l-61.525-63.595 c-0.036-0.037-0.076-0.068-0.112-0.105L88.738,112.099L119.084,81.753z M127.747,417.575l-33.66-33.66l100.214-101.328 l32.01,33.09L127.747,417.575z"/> </g> </g> </g>

    <g id="SVGRepo_iconCarrier"> <g> <g> <path d="M475.582,347.582l-16.89,16.89L347.368,251.907l106.066-109.636l22.147,22.147c8.331,8.331,21.839,8.331,30.17,0 c8.331-8.331,8.331-21.839,0-30.17l-37.462-37.462c-0.007-0.007-0.013-0.015-0.02-0.022l-60.352-60.352 c-0.007-0.007-0.015-0.013-0.023-0.021L377.752,6.248c-8.331-8.331-21.839-8.331-30.17,0c-8.331,8.331-8.331,21.839,0,30.17 l15.163,15.163l-106.742,107.94L149.254,51.582l15.164-15.164c8.331-8.331,8.331-21.839,0-30.17 c-8.331-8.331-21.839-8.331-30.17,0l-30.165,30.165c0,0,0,0-0.001,0.001L43.731,96.766L6.248,134.248 c-8.331,8.331-8.331,21.839,0,30.17c8.331,8.331,21.839,8.331,30.17,0l22.146-22.146l106.064,109.641L53.308,364.471 l-16.889-16.889c-8.331-8.331-21.839-8.331-30.17,0c-8.331,8.331-8.331,21.839,0,30.17l128,128c8.331,8.331,21.839,8.331,30.17,0 c8.331-8.331,8.331-21.839,0-30.17l-16.988-16.988l108.562-112.235l108.575,112.236l-16.986,16.986 c-8.331,8.331-8.331,21.839,0,30.17c8.331,8.331,21.839,8.331,30.17,0l128-128c8.331-8.331,8.331-21.839,0-30.17 C497.42,339.251,483.913,339.251,475.582,347.582z M392.915,81.752l30.345,30.345L317.359,221.563l-31.352-31.702L392.915,81.752z M119.084,81.753l121.682,123.04c0.023,0.024,0.042,0.05,0.066,0.073l61.525,62.208c0.01,0.01,0.021,0.018,0.031,0.028 l115.525,116.814l-33.661,33.661L271.487,301.01c-0.054-0.057-0.1-0.12-0.154-0.176l-61.525-63.595 c-0.036-0.037-0.076-0.068-0.112-0.105L88.738,112.099L119.084,81.753z M127.747,417.575l-33.66-33.66l100.214-101.328 l32.01,33.09L127.747,417.575z"/> </g> </g> </g>

</svg>
